<svg
    viewBox="0 0 150 190"
    version="1.1"
    xmlns="http://www.w3.org/2000/svg"
    xmlns:xlink="http://www.w3.org/1999/xlink"
>
    <title>parcelLab</title>
    <g stroke="none" stroke-width="1" fill="black" fill-rule="evenodd">
        <g
            transform="translate(17.000000, 32.000000)"
            fill="#fff"
            fill-rule="nonzero"
        >
            <path d="M18,94.9 L18,29.5 L1.42108547e-14,40.1 L1.42108547e-14,105.1 L42,129.9 L42,109 L18,94.9 Z M68,1.42108547e-14 L24,26 L24,91.4 L42,102 L42,39.5 L65,53.1 L65,79.3 L48,69.2 L48,90.1 L68,101.9 L112,75.9 L112,25.9 L68,1.42108547e-14 Z M45.2,34.4 L68,20.9 L90.8,34.4 L68,47.9 L45.2,34.4 Z M94,65.7 L71,79.3 L71,53.1 L94,39.5 L94,65.7 Z"></path>{' '}
        </g>
    </g>
</svg>